<svg width="24" height="25" viewBox="0 0 24 25" fill="none" xmlns="http://www.w3.org/2000/svg">
<g id="thumb_up">
<mask id="mask0_553_4510" style="mask-type:alpha" maskUnits="userSpaceOnUse" x="0" y="0" width="24" height="25">
<rect id="Bounding box" y="0.386719" width="24" height="24" fill="#D9D9D9"/>
</mask>
<g mask="url(#mask0_553_4510)">
<path id="thumb_up_2" d="M18 21.3867H7V8.38672L14 1.38672L15.25 2.63672C15.3667 2.75339 15.4625 2.91172 15.5375 3.11172C15.6125 3.31172 15.65 3.50339 15.65 3.68672V4.03672L14.55 8.38672H21C21.5333 8.38672 22 8.58672 22.4 8.98672C22.8 9.38672 23 9.85338 23 10.3867V12.3867C23 12.5034 22.9833 12.6284 22.95 12.7617C22.9167 12.8951 22.8833 13.0201 22.85 13.1367L19.85 20.1867C19.7 20.5201 19.45 20.8034 19.1 21.0367C18.75 21.2701 18.3833 21.3867 18 21.3867ZM9 19.3867H18L21 12.3867V10.3867H12L13.35 4.88672L9 9.23672V19.3867ZM7 8.38672V10.3867H4V19.3867H7V21.3867H2V8.38672H7Z" fill="white"/>
</g>
</g>
</svg>
